<svg width="372" height="81" viewBox="0 0 372 81" fill="none" xmlns="http://www.w3.org/2000/svg">
<mask id="mask0_56_26" style="mask-type:luminance" maskUnits="userSpaceOnUse" x="0" y="19" width="51" height="45">
<path d="M50.5 19H0V63.8889H50.5V19Z" fill="white"/>
<path d="M0 36.0578C4.20833 33.3645 8.41667 38.7512 12.625 36.0578C16.8333 33.3645 21.0417 38.7512 25.25 36.0578C29.4583 33.3645 33.6667 38.7512 37.875 36.0578C42.0833 33.3645 46.2917 38.7512 50.5 36.0578V41.8934C46.2917 44.5867 42.0833 39.2001 37.875 41.8934C33.6667 44.5867 29.4583 39.2001 25.25 41.8934C21.0417 44.5867 16.8333 39.2001 12.625 41.8934C8.41667 44.5867 4.20833 39.2001 0 41.8934V36.0578Z" fill="black"/>
</mask>
<g mask="url(#mask0_56_26)">
</g>
<mask id="mask1_56_26" style="mask-type:luminance" maskUnits="userSpaceOnUse" x="0" y="19" width="51" height="45">
<path d="M50.5 19H0V63.8889H50.5V19Z" fill="white"/>
<path d="M0 36.0578C4.20833 33.3645 8.41667 38.7512 12.625 36.0578C16.8333 33.3645 21.0417 38.7512 25.25 36.0578C29.4583 33.3645 33.6667 38.7512 37.875 36.0578C42.0833 33.3645 46.2917 38.7512 50.5 36.0578V41.8934C46.2917 44.5867 42.0833 39.2001 37.875 41.8934C33.6667 44.5867 29.4583 39.2001 25.25 41.8934C21.0417 44.5867 16.8333 39.2001 12.625 41.8934C8.41667 44.5867 4.20833 39.2001 0 41.8934V36.0578Z" fill="black"/>
</mask>
<g mask="url(#mask1_56_26)">
<path d="M25.25 54.0134C34.3144 54.0134 41.6625 47.1802 41.6625 38.7511C41.6625 30.3221 34.3144 23.4889 25.25 23.4889C16.1856 23.4889 8.83749 30.3221 8.83749 38.7511C8.83749 47.1802 16.1856 54.0134 25.25 54.0134Z" fill="#00E46A"/>
<path d="M20.2 51.7689L17.675 60.2978L26.5125 53.1156L20.2 51.7689Z" fill="#00E46A"/>
</g>
<path d="M67.7625 50.6952C65.9705 50.6952 64.4452 50.2366 63.1865 49.3192C61.9492 48.4019 60.9998 47.0579 60.3385 45.2872C59.6985 43.5166 59.3785 41.3726 59.3785 38.8552C59.3785 36.2952 59.6985 34.1299 60.3385 32.3592C60.9998 30.5886 61.9492 29.2446 63.1865 28.3272C64.4452 27.4099 65.9705 26.9512 67.7625 26.9512C69.5545 26.9512 71.0692 27.4099 72.3065 28.3272C73.5652 29.2446 74.5145 30.5886 75.1545 32.3592C75.8158 34.1299 76.1465 36.2952 76.1465 38.8552C76.1465 41.3726 75.8158 43.5166 75.1545 45.2872C74.5145 47.0579 73.5652 48.4019 72.3065 49.3192C71.0692 50.2366 69.5545 50.6952 67.7625 50.6952ZM67.7625 48.0072C68.9358 48.0072 69.9278 47.6659 70.7385 46.9832C71.5705 46.2792 72.1998 45.2446 72.6265 43.8792C73.0532 42.5139 73.2665 40.8392 73.2665 38.8552C73.2665 36.8712 73.0532 35.1966 72.6265 33.8312C72.1998 32.4446 71.5705 31.3992 70.7385 30.6952C69.9278 29.9912 68.9358 29.6392 67.7625 29.6392C66.5892 29.6392 65.5865 29.9912 64.7545 30.6952C63.9438 31.3992 63.3252 32.4446 62.8985 33.8312C62.4718 35.1966 62.2585 36.8712 62.2585 38.8552C62.2585 40.8392 62.4718 42.5139 62.8985 43.8792C63.3252 45.2446 63.9438 46.2792 64.7545 46.9832C65.5865 47.6659 66.5892 48.0072 67.7625 48.0072ZM79.91 54.9832V33.2232H82.406L82.47 37.0632L82.086 36.8712C82.5127 35.5486 83.2167 34.5459 84.198 33.8632C85.2007 33.1806 86.3527 32.8392 87.654 32.8392C89.3393 32.8392 90.7153 33.2552 91.782 34.0872C92.87 34.9192 93.67 36.0072 94.182 37.3512C94.694 38.6952 94.95 40.1459 94.95 41.7032C94.95 43.2606 94.694 44.7112 94.182 46.0552C93.67 47.3992 92.87 48.4872 91.782 49.3192C90.7153 50.1512 89.3393 50.5672 87.654 50.5672C86.7793 50.5672 85.958 50.4179 85.19 50.1192C84.4433 49.8206 83.8033 49.4046 83.27 48.8712C82.758 48.3379 82.406 47.7086 82.214 46.9832L82.598 46.5352V54.9832H79.91ZM87.398 48.0072C88.87 48.0072 90.022 47.4526 90.854 46.3432C91.7073 45.2339 92.134 43.6872 92.134 41.7032C92.134 39.7192 91.7073 38.1726 90.854 37.0632C90.022 35.9539 88.87 35.3992 87.398 35.3992C86.4167 35.3992 85.5633 35.6339 84.838 36.1032C84.134 36.5726 83.5793 37.2766 83.174 38.2152C82.79 39.1539 82.598 40.3166 82.598 41.7032C82.598 43.0899 82.79 44.2526 83.174 45.1912C83.558 46.1299 84.1127 46.8339 84.838 47.3032C85.5633 47.7726 86.4167 48.0072 87.398 48.0072ZM106.426 50.5672C104.826 50.5672 103.439 50.2046 102.266 49.4792C101.114 48.7539 100.218 47.7299 99.5775 46.4072C98.9588 45.0632 98.6495 43.4952 98.6495 41.7032C98.6495 39.9112 98.9588 38.3539 99.5775 37.0312C100.218 35.7086 101.103 34.6846 102.234 33.9592C103.386 33.2126 104.74 32.8392 106.298 32.8392C107.77 32.8392 109.071 33.1912 110.202 33.8952C111.332 34.5779 112.218 35.5806 112.858 36.9032C113.498 38.2259 113.818 39.8366 113.818 41.7352V42.5352H101.466C101.572 44.3486 102.052 45.7139 102.906 46.6312C103.78 47.5486 104.954 48.0072 106.426 48.0072C107.535 48.0072 108.442 47.7512 109.146 47.2392C109.871 46.7059 110.372 46.0126 110.65 45.1592L113.53 45.3832C113.082 46.8979 112.228 48.1459 110.97 49.1272C109.732 50.0872 108.218 50.5672 106.426 50.5672ZM101.466 40.1672H110.874C110.746 38.5246 110.266 37.3192 109.434 36.5512C108.602 35.7832 107.556 35.3992 106.298 35.3992C104.996 35.3992 103.919 35.8046 103.066 36.6152C102.234 37.4046 101.7 38.5886 101.466 40.1672ZM118.413 50.1832V33.2232H120.877L120.973 37.5432L120.653 37.2552C120.866 36.2526 121.25 35.4312 121.805 34.7912C122.381 34.1299 123.064 33.6392 123.853 33.3192C124.642 32.9992 125.474 32.8392 126.349 32.8392C127.65 32.8392 128.728 33.1272 129.581 33.7032C130.456 34.2792 131.117 35.0579 131.565 36.0392C132.013 36.9992 132.237 38.0766 132.237 39.2712V50.1832H129.549V40.0392C129.549 38.4606 129.24 37.2659 128.621 36.4552C128.002 35.6232 127.053 35.2072 125.773 35.2072C124.898 35.2072 124.109 35.3992 123.405 35.7832C122.701 36.1459 122.136 36.6899 121.709 37.4152C121.304 38.1192 121.101 38.9939 121.101 40.0392V50.1832H118.413ZM163.764 50.6952C161.951 50.6952 160.415 50.2152 159.156 49.2552C157.897 48.2952 156.937 46.9299 156.276 45.1592C155.636 43.3886 155.316 41.2872 155.316 38.8552C155.316 36.4019 155.636 34.2899 156.276 32.5192C156.937 30.7486 157.897 29.3832 159.156 28.4232C160.415 27.4419 161.951 26.9512 163.764 26.9512C165.769 26.9512 167.476 27.6126 168.884 28.9352C170.292 30.2366 171.231 32.0606 171.7 34.4072L168.756 34.5992C168.393 32.9566 167.764 31.7192 166.868 30.8872C165.993 30.0552 164.959 29.6392 163.764 29.6392C162.548 29.6392 161.524 30.0019 160.692 30.7272C159.881 31.4312 159.263 32.4766 158.836 33.8632C158.409 35.2286 158.196 36.8926 158.196 38.8552C158.196 40.7966 158.409 42.4499 158.836 43.8152C159.263 45.1806 159.881 46.2259 160.692 46.9512C161.524 47.6552 162.548 48.0072 163.764 48.0072C165.087 48.0072 166.207 47.5486 167.124 46.6312C168.041 45.7139 168.66 44.3486 168.98 42.5352L171.892 42.6952C171.487 45.1912 170.569 47.1539 169.14 48.5832C167.711 49.9912 165.919 50.6952 163.764 50.6952ZM176.488 50.1832V27.4632H179.176V36.9672L178.856 36.9032C179.069 35.9646 179.432 35.1966 179.944 34.5992C180.456 34.0019 181.085 33.5646 181.832 33.2872C182.578 32.9886 183.389 32.8392 184.264 32.8392C185.48 32.8392 186.504 33.1166 187.336 33.6712C188.189 34.2046 188.829 34.9619 189.256 35.9432C189.704 36.9032 189.928 38.0126 189.928 39.2712V50.1832H187.24V40.0392C187.24 38.3966 186.941 37.1806 186.344 36.3912C185.768 35.6019 184.882 35.2072 183.688 35.2072C182.322 35.2072 181.224 35.6232 180.392 36.4552C179.581 37.2872 179.176 38.4926 179.176 40.0712V50.1832H176.488ZM199.835 50.5672C198.768 50.5672 197.808 50.3752 196.955 49.9912C196.102 49.6072 195.43 49.0739 194.939 48.3912C194.448 47.6872 194.203 46.8766 194.203 45.9592C194.203 44.5086 194.63 43.3886 195.483 42.5992C196.358 41.7886 197.723 41.2019 199.579 40.8392L205.275 39.6872C205.275 38.2366 204.944 37.1592 204.283 36.4552C203.643 35.7512 202.715 35.3992 201.499 35.3992C200.326 35.3992 199.408 35.6659 198.747 36.1992C198.086 36.7112 197.627 37.4579 197.371 38.4392L194.523 38.2152C194.843 36.6152 195.6 35.3246 196.795 34.3432C198.011 33.3406 199.579 32.8392 201.499 32.8392C203.547 32.8392 205.136 33.4579 206.267 34.6952C207.398 35.9112 207.963 37.5966 207.963 39.7512V46.7912C207.963 47.1752 208.048 47.4419 208.219 47.5912C208.39 47.7406 208.646 47.8152 208.987 47.8152H210.075V50.1832C209.947 50.2046 209.744 50.2152 209.467 50.2152C209.19 50.2366 208.923 50.2472 208.667 50.2472C207.942 50.2472 207.323 50.1299 206.811 49.8952C206.32 49.6606 205.947 49.2872 205.691 48.7752C205.435 48.2419 205.296 47.5592 205.275 46.7272H205.787C205.638 47.4526 205.275 48.1139 204.699 48.7112C204.144 49.2872 203.44 49.7459 202.587 50.0872C201.734 50.4072 200.816 50.5672 199.835 50.5672ZM200.091 48.1992C201.243 48.1992 202.203 48.0072 202.971 47.6232C203.739 47.2179 204.315 46.6632 204.699 45.9592C205.083 45.2339 205.275 44.4019 205.275 43.4632V41.9912L200.091 43.0152C198.939 43.2286 198.139 43.5592 197.691 44.0072C197.243 44.4339 197.019 44.9992 197.019 45.7032C197.019 46.4926 197.286 47.1112 197.819 47.5592C198.374 47.9859 199.131 48.1992 200.091 48.1992ZM223.759 50.1832C222.116 50.1832 220.889 49.7992 220.079 49.0312C219.268 48.2632 218.863 47.0899 218.863 45.5112V29.2552H221.551V45.5112C221.551 46.3006 221.732 46.8872 222.095 47.2712C222.457 47.6339 223.012 47.8152 223.759 47.8152H228.303V50.1832H223.759ZM213.263 35.5912V33.2232H228.303V35.5912H213.263ZM253.494 50.1832L250.998 27.4632H253.878L255.99 48.5832H255.67L258.166 30.0232H261.11L263.606 48.5832H263.286L265.398 27.4632H268.278L265.782 50.1832H261.622L259.254 32.2632H260.022L257.654 50.1832H253.494ZM278.601 50.1832V33.2232H281.289V50.1832H278.601ZM271.785 50.1832V47.8152H287.145V50.1832H271.785ZM272.105 35.5912V33.2232H281.289V35.5912H272.105ZM278.345 30.5672V27.4312H281.161V30.5672H278.345ZM296.957 50.5672C295.463 50.5672 294.173 50.2046 293.085 49.4792C291.997 48.7539 291.154 47.7299 290.557 46.4072C289.981 45.0846 289.693 43.5166 289.693 41.7032C289.693 39.8899 289.981 38.3219 290.557 36.9992C291.154 35.6766 291.997 34.6526 293.085 33.9272C294.173 33.2019 295.463 32.8392 296.957 32.8392C298.151 32.8392 299.197 33.1272 300.093 33.7032C300.989 34.2579 301.639 34.8872 302.045 35.5912V27.4632H304.733V50.1832H302.301L302.205 47.6232C301.735 48.5406 301.042 49.2659 300.125 49.7992C299.207 50.3112 298.151 50.5672 296.957 50.5672ZM297.117 48.0072C298.141 48.0072 299.015 47.7512 299.741 47.2392C300.487 46.7272 301.053 46.0019 301.437 45.0632C301.842 44.1032 302.045 42.9832 302.045 41.7032C302.045 40.3806 301.842 39.2499 301.437 38.3112C301.053 37.3726 300.487 36.6579 299.741 36.1672C298.994 35.6552 298.098 35.3992 297.053 35.3992C295.666 35.3992 294.557 35.9646 293.725 37.0952C292.914 38.2046 292.509 39.7406 292.509 41.7032C292.509 43.6446 292.914 45.1806 293.725 46.3112C294.557 47.4419 295.687 48.0072 297.117 48.0072ZM317.104 55.3672C315.888 55.3672 314.789 55.1646 313.808 54.7592C312.827 54.3539 312.005 53.7779 311.344 53.0312C310.683 52.2846 310.235 51.4206 310 50.4392L312.816 50.2472C313.072 51.0366 313.52 51.6552 314.16 52.1032C314.821 52.5726 315.803 52.8072 317.104 52.8072C318.64 52.8072 319.813 52.4979 320.624 51.8792C321.456 51.2606 321.872 50.3326 321.872 49.0952V46.3432C321.467 47.2392 320.816 47.9539 319.92 48.4872C319.024 49.0206 318.021 49.2872 316.912 49.2872C315.483 49.2872 314.203 48.9352 313.072 48.2312C311.963 47.5272 311.088 46.5566 310.448 45.3192C309.829 44.0819 309.52 42.6632 309.52 41.0632C309.52 39.4419 309.829 38.0232 310.448 36.8072C311.067 35.5699 311.92 34.5992 313.008 33.8952C314.117 33.1912 315.376 32.8392 316.784 32.8392C317.979 32.8392 319.045 33.1166 319.984 33.6712C320.944 34.2259 321.616 34.9726 322 35.9112V33.2232H324.56V49.0312C324.56 50.3539 324.261 51.4846 323.664 52.4232C323.067 53.3832 322.213 54.1086 321.104 54.5992C319.995 55.1112 318.661 55.3672 317.104 55.3672ZM317.04 46.7272C318.491 46.7272 319.653 46.2259 320.528 45.2232C321.403 44.1992 321.851 42.8126 321.872 41.0632C321.893 39.8899 321.701 38.8872 321.296 38.0552C320.912 37.2019 320.347 36.5512 319.6 36.1032C318.875 35.6339 318.021 35.3992 317.04 35.3992C315.547 35.3992 314.384 35.9112 313.552 36.9352C312.741 37.9379 312.336 39.3139 312.336 41.0632C312.336 42.8126 312.752 44.1992 313.584 45.2232C314.437 46.2259 315.589 46.7272 317.04 46.7272ZM336.676 50.5672C335.076 50.5672 333.689 50.2046 332.516 49.4792C331.364 48.7539 330.468 47.7299 329.828 46.4072C329.209 45.0632 328.9 43.4952 328.9 41.7032C328.9 39.9112 329.209 38.3539 329.828 37.0312C330.468 35.7086 331.353 34.6846 332.484 33.9592C333.636 33.2126 334.99 32.8392 336.548 32.8392C338.02 32.8392 339.321 33.1912 340.452 33.8952C341.582 34.5779 342.468 35.5806 343.108 36.9032C343.748 38.2259 344.068 39.8366 344.068 41.7352V42.5352H331.716C331.822 44.3486 332.302 45.7139 333.156 46.6312C334.03 47.5486 335.204 48.0072 336.676 48.0072C337.785 48.0072 338.692 47.7512 339.396 47.2392C340.121 46.7059 340.622 46.0126 340.9 45.1592L343.78 45.3832C343.332 46.8979 342.478 48.1459 341.22 49.1272C339.982 50.0872 338.468 50.5672 336.676 50.5672ZM331.716 40.1672H341.124C340.996 38.5246 340.516 37.3192 339.684 36.5512C338.852 35.7832 337.806 35.3992 336.548 35.3992C335.246 35.3992 334.169 35.8046 333.316 36.6152C332.484 37.4046 331.95 38.5886 331.716 40.1672ZM358.071 50.1832C356.428 50.1832 355.202 49.7992 354.391 49.0312C353.58 48.2632 353.175 47.0899 353.175 45.5112V29.2552H355.863V45.5112C355.863 46.3006 356.044 46.8872 356.407 47.2712C356.77 47.6339 357.324 47.8152 358.071 47.8152H362.615V50.1832H358.071ZM347.575 35.5912V33.2232H362.615V35.5912H347.575Z" fill="white"/>
</svg>
